# xmcd CD database file
#
# Track frame offsets:
#	150
#	18099
#	36603
#	51208
#	63677
#	75674
#	90841
#	109386
#	126424
#	137671
#	155119
#	173295
#	187516
#	199599
#	215115
#	230615
#	239403
#	252235
#	267837
#
# Disc length: 3725 seconds
#
# Revision: 0
# Processed by: cddbd v1.5.1PL0 Copyright (c) Steve Scherf et al.
# Submitted via: CDex 1.51
#
DISCID=080e8b13
DTITLE=Tom Jones And Jools Holland - Tom Jones And Jools Holland
DYEAR=2004
DGENRE=Jazz
TTITLE0=Lifes Too Short
TTITLE1=200 Lbs Of Heavenly Joy
TTITLE2=Good Morning Blues
TTITLE3=It'll Be Me
TTITLE4=Who Will The Next Fool Be
TTITLE5=Linda Lu
TTITLE6=St James Infirmary Blues
TTITLE7=Odd Man Out
TTITLE8=Roberta
TTITLE9=Baptism By Fire
TTITLE10=Think
TTITLE11=Hanging Up My Heart For You
TTITLE12=Mess Of Blues
TTITLE13=Sally Suzas
TTITLE14=My Babe
TTITLE15=End Of The Road
TTITLE16=Slow Down
TTITLE17=Glory Of Love
TTITLE18=Mam And Dads Waltz
EXTD=YEAR: 2004
EXTT0=
EXTT1=
EXTT2=
EXTT3=
EXTT4=
EXTT5=
EXTT6=
EXTT7=
EXTT8=
EXTT9=
EXTT10=
EXTT11=
EXTT12=
EXTT13=
EXTT14=
EXTT15=
EXTT16=
EXTT17=
EXTT18=
PLAYORDER=
